<mxfile host="app.diagrams.net" modified="2023-09-16T06:16:03.570Z" agent="Mozilla/5.0 (Windows NT 10.0; Win64; x64) AppleWebKit/537.36 (KHTML, like Gecko) Chrome/116.0.0.0 Safari/537.36 OpenWave/99.4.7763.64" etag="bITKpVesuvAzB1OveJN9" version="21.7.5" type="device">
  <diagram name="Page-1" id="03018318-947c-dd8e-b7a3-06fadd420f32">
    <mxGraphModel dx="2074" dy="790" grid="1" gridSize="10" guides="1" tooltips="1" connect="1" arrows="1" fold="1" page="1" pageScale="1" pageWidth="1100" pageHeight="850" background="none" math="0" shadow="0">
      <root>
        <mxCell id="0" />
        <mxCell id="1" parent="0" />
        <mxCell id="677b7b8949515195-1" value="" style="whiteSpace=wrap;html=1;rounded=0;shadow=0;labelBackgroundColor=none;strokeColor=#000000;strokeWidth=1;fillColor=none;fontFamily=Verdana;fontSize=12;fontColor=#000000;align=center;comic=1;" parent="1" vertex="1">
          <mxGeometry x="20" y="20" width="1060" height="810" as="geometry" />
        </mxCell>
        <mxCell id="gBUR-F1FtjLeRcrd6eLH-1" value="" style="endArrow=none;html=1;rounded=0;entryX=0.132;entryY=0.667;entryDx=0;entryDy=0;entryPerimeter=0;" parent="1" target="677b7b8949515195-1" edge="1">
          <mxGeometry width="50" height="50" relative="1" as="geometry">
            <mxPoint x="20" y="690" as="sourcePoint" />
            <mxPoint x="70" y="570" as="targetPoint" />
          </mxGeometry>
        </mxCell>
        <mxCell id="gBUR-F1FtjLeRcrd6eLH-4" value="" style="endArrow=none;html=1;rounded=0;entryX=1.001;entryY=0.667;entryDx=0;entryDy=0;entryPerimeter=0;" parent="1" target="677b7b8949515195-1" edge="1">
          <mxGeometry width="50" height="50" relative="1" as="geometry">
            <mxPoint x="160" y="560" as="sourcePoint" />
            <mxPoint x="570" y="400" as="targetPoint" />
          </mxGeometry>
        </mxCell>
        <mxCell id="gBUR-F1FtjLeRcrd6eLH-5" value="" style="endArrow=none;html=1;rounded=0;entryX=1.001;entryY=0.667;entryDx=0;entryDy=0;entryPerimeter=0;" parent="1" edge="1">
          <mxGeometry width="50" height="50" relative="1" as="geometry">
            <mxPoint x="20" y="690" as="sourcePoint" />
            <mxPoint x="1080" y="690" as="targetPoint" />
          </mxGeometry>
        </mxCell>
        <mxCell id="gBUR-F1FtjLeRcrd6eLH-6" value="" style="endArrow=none;html=1;rounded=0;entryX=0.132;entryY=0.667;entryDx=0;entryDy=0;entryPerimeter=0;" parent="1" edge="1">
          <mxGeometry width="50" height="50" relative="1" as="geometry">
            <mxPoint x="20" y="360" as="sourcePoint" />
            <mxPoint x="160" y="300" as="targetPoint" />
          </mxGeometry>
        </mxCell>
        <mxCell id="gBUR-F1FtjLeRcrd6eLH-7" value="" style="endArrow=none;html=1;rounded=0;" parent="1" edge="1">
          <mxGeometry width="50" height="50" relative="1" as="geometry">
            <mxPoint x="160" y="560" as="sourcePoint" />
            <mxPoint x="160" y="300" as="targetPoint" />
          </mxGeometry>
        </mxCell>
        <mxCell id="gBUR-F1FtjLeRcrd6eLH-8" value="" style="endArrow=none;html=1;rounded=0;entryX=0.999;entryY=0.348;entryDx=0;entryDy=0;entryPerimeter=0;" parent="1" target="677b7b8949515195-1" edge="1">
          <mxGeometry width="50" height="50" relative="1" as="geometry">
            <mxPoint x="160" y="300" as="sourcePoint" />
            <mxPoint x="570" y="400" as="targetPoint" />
          </mxGeometry>
        </mxCell>
        <mxCell id="gBUR-F1FtjLeRcrd6eLH-9" value="" style="shape=cube;whiteSpace=wrap;html=1;boundedLbl=1;backgroundOutline=1;darkOpacity=0.05;darkOpacity2=0.1;fillColor=#f8cecc;strokeColor=#b85450;" parent="1" vertex="1">
          <mxGeometry x="110" y="560" width="80" height="80" as="geometry" />
        </mxCell>
        <mxCell id="gBUR-F1FtjLeRcrd6eLH-10" value="" style="shape=cube;whiteSpace=wrap;html=1;boundedLbl=1;backgroundOutline=1;darkOpacity=0.05;darkOpacity2=0.1;fillColor=#dae8fc;strokeColor=#6c8ebf;" parent="1" vertex="1">
          <mxGeometry x="768.69" y="510" width="80" height="80" as="geometry" />
        </mxCell>
        <mxCell id="gBUR-F1FtjLeRcrd6eLH-11" value="" style="shape=cube;whiteSpace=wrap;html=1;boundedLbl=1;backgroundOutline=1;darkOpacity=0.05;darkOpacity2=0.1;fillColor=#d5e8d4;strokeColor=#82b366;" parent="1" vertex="1">
          <mxGeometry x="500" y="500" width="80" height="80" as="geometry" />
        </mxCell>
        <mxCell id="gBUR-F1FtjLeRcrd6eLH-12" value="" style="endArrow=none;html=1;rounded=0;" parent="1" edge="1">
          <mxGeometry width="50" height="50" relative="1" as="geometry">
            <mxPoint x="800" y="510" as="sourcePoint" />
            <mxPoint x="800" y="300" as="targetPoint" />
          </mxGeometry>
        </mxCell>
        <mxCell id="gBUR-F1FtjLeRcrd6eLH-13" value="" style="endArrow=none;html=1;rounded=0;entryX=0;entryY=0;entryDx=50;entryDy=80;entryPerimeter=0;" parent="1" target="gBUR-F1FtjLeRcrd6eLH-10" edge="1">
          <mxGeometry width="50" height="50" relative="1" as="geometry">
            <mxPoint x="870" y="690" as="sourcePoint" />
            <mxPoint x="800" y="560" as="targetPoint" />
          </mxGeometry>
        </mxCell>
        <mxCell id="gBUR-F1FtjLeRcrd6eLH-14" value="" style="shape=cube;whiteSpace=wrap;html=1;boundedLbl=1;backgroundOutline=1;darkOpacity=0.05;darkOpacity2=0.1;fillColor=#fa6800;strokeColor=#C73500;fontColor=#000000;" parent="1" vertex="1">
          <mxGeometry x="860" y="510" width="80" height="80" as="geometry" />
        </mxCell>
        <mxCell id="gBUR-F1FtjLeRcrd6eLH-15" value="" style="shape=cube;whiteSpace=wrap;html=1;boundedLbl=1;backgroundOutline=1;darkOpacity=0.05;darkOpacity2=0.1;fillColor=#fa6800;strokeColor=#C73500;fontColor=#000000;" parent="1" vertex="1">
          <mxGeometry x="960" y="570" width="80" height="80" as="geometry" />
        </mxCell>
        <mxCell id="NKPPKOvQrAzpYlbN02P3-1" value="Inventory" style="shape=table;startSize=30;container=1;collapsible=0;childLayout=tableLayout;strokeColor=default;fontSize=16;fillColor=#FFFFFF;strokeWidth=1;sketch=0;" parent="1" vertex="1">
          <mxGeometry x="550" y="190" width="250" height="270" as="geometry" />
        </mxCell>
        <mxCell id="NKPPKOvQrAzpYlbN02P3-2" value="" style="shape=tableRow;horizontal=0;startSize=0;swimlaneHead=0;swimlaneBody=0;strokeColor=inherit;top=0;left=0;bottom=0;right=0;collapsible=0;dropTarget=0;fillColor=none;points=[[0,0.5],[1,0.5]];portConstraint=eastwest;fontSize=16;" parent="NKPPKOvQrAzpYlbN02P3-1" vertex="1">
          <mxGeometry y="30" width="250" height="80" as="geometry" />
        </mxCell>
        <mxCell id="NKPPKOvQrAzpYlbN02P3-3" value="" style="shape=partialRectangle;html=1;whiteSpace=wrap;connectable=0;strokeColor=inherit;overflow=hidden;fillColor=none;top=0;left=0;bottom=0;right=0;pointerEvents=1;fontSize=16;" parent="NKPPKOvQrAzpYlbN02P3-2" vertex="1">
          <mxGeometry width="83" height="80" as="geometry">
            <mxRectangle width="83" height="80" as="alternateBounds" />
          </mxGeometry>
        </mxCell>
        <mxCell id="NKPPKOvQrAzpYlbN02P3-4" value="" style="shape=partialRectangle;html=1;whiteSpace=wrap;connectable=0;strokeColor=inherit;overflow=hidden;fillColor=none;top=0;left=0;bottom=0;right=0;pointerEvents=1;fontSize=16;strokeWidth=1;shadow=0;" parent="NKPPKOvQrAzpYlbN02P3-2" vertex="1">
          <mxGeometry x="83" width="84" height="80" as="geometry">
            <mxRectangle width="84" height="80" as="alternateBounds" />
          </mxGeometry>
        </mxCell>
        <mxCell id="NKPPKOvQrAzpYlbN02P3-5" value="" style="shape=partialRectangle;html=1;whiteSpace=wrap;connectable=0;overflow=hidden;top=0;left=0;bottom=0;right=0;pointerEvents=1;fontSize=16;strokeColor=none;fillColor=none;" parent="NKPPKOvQrAzpYlbN02P3-2" vertex="1">
          <mxGeometry x="167" width="83" height="80" as="geometry">
            <mxRectangle width="83" height="80" as="alternateBounds" />
          </mxGeometry>
        </mxCell>
        <mxCell id="NKPPKOvQrAzpYlbN02P3-6" style="shape=tableRow;horizontal=0;startSize=0;swimlaneHead=0;swimlaneBody=0;strokeColor=inherit;top=0;left=0;bottom=0;right=0;collapsible=0;dropTarget=0;fillColor=none;points=[[0,0.5],[1,0.5]];portConstraint=eastwest;fontSize=16;" parent="NKPPKOvQrAzpYlbN02P3-1" vertex="1">
          <mxGeometry y="110" width="250" height="80" as="geometry" />
        </mxCell>
        <mxCell id="NKPPKOvQrAzpYlbN02P3-7" style="shape=partialRectangle;html=1;whiteSpace=wrap;connectable=0;strokeColor=inherit;overflow=hidden;fillColor=none;top=0;left=0;bottom=0;right=0;pointerEvents=1;fontSize=16;" parent="NKPPKOvQrAzpYlbN02P3-6" vertex="1">
          <mxGeometry width="83" height="80" as="geometry">
            <mxRectangle width="83" height="80" as="alternateBounds" />
          </mxGeometry>
        </mxCell>
        <mxCell id="NKPPKOvQrAzpYlbN02P3-8" style="shape=partialRectangle;html=1;whiteSpace=wrap;connectable=0;strokeColor=inherit;overflow=hidden;fillColor=none;top=0;left=0;bottom=0;right=0;pointerEvents=1;fontSize=16;" parent="NKPPKOvQrAzpYlbN02P3-6" vertex="1">
          <mxGeometry x="83" width="84" height="80" as="geometry">
            <mxRectangle width="84" height="80" as="alternateBounds" />
          </mxGeometry>
        </mxCell>
        <mxCell id="NKPPKOvQrAzpYlbN02P3-9" style="shape=partialRectangle;html=1;whiteSpace=wrap;connectable=0;strokeColor=inherit;overflow=hidden;fillColor=none;top=0;left=0;bottom=0;right=0;pointerEvents=1;fontSize=16;" parent="NKPPKOvQrAzpYlbN02P3-6" vertex="1">
          <mxGeometry x="167" width="83" height="80" as="geometry">
            <mxRectangle width="83" height="80" as="alternateBounds" />
          </mxGeometry>
        </mxCell>
        <mxCell id="NKPPKOvQrAzpYlbN02P3-10" style="shape=tableRow;horizontal=0;startSize=0;swimlaneHead=0;swimlaneBody=0;strokeColor=inherit;top=0;left=0;bottom=0;right=0;collapsible=0;dropTarget=0;fillColor=none;points=[[0,0.5],[1,0.5]];portConstraint=eastwest;fontSize=16;" parent="NKPPKOvQrAzpYlbN02P3-1" vertex="1">
          <mxGeometry y="190" width="250" height="80" as="geometry" />
        </mxCell>
        <mxCell id="NKPPKOvQrAzpYlbN02P3-11" style="shape=partialRectangle;html=1;whiteSpace=wrap;connectable=0;strokeColor=inherit;overflow=hidden;fillColor=none;top=0;left=0;bottom=0;right=0;pointerEvents=1;fontSize=16;" parent="NKPPKOvQrAzpYlbN02P3-10" vertex="1">
          <mxGeometry width="83" height="80" as="geometry">
            <mxRectangle width="83" height="80" as="alternateBounds" />
          </mxGeometry>
        </mxCell>
        <mxCell id="NKPPKOvQrAzpYlbN02P3-12" style="shape=partialRectangle;html=1;whiteSpace=wrap;connectable=0;strokeColor=inherit;overflow=hidden;fillColor=none;top=0;left=0;bottom=0;right=0;pointerEvents=1;fontSize=16;" parent="NKPPKOvQrAzpYlbN02P3-10" vertex="1">
          <mxGeometry x="83" width="84" height="80" as="geometry">
            <mxRectangle width="84" height="80" as="alternateBounds" />
          </mxGeometry>
        </mxCell>
        <mxCell id="NKPPKOvQrAzpYlbN02P3-13" style="shape=partialRectangle;html=1;whiteSpace=wrap;connectable=0;strokeColor=inherit;overflow=hidden;fillColor=none;top=0;left=0;bottom=0;right=0;pointerEvents=1;fontSize=16;" parent="NKPPKOvQrAzpYlbN02P3-10" vertex="1">
          <mxGeometry x="167" width="83" height="80" as="geometry">
            <mxRectangle width="83" height="80" as="alternateBounds" />
          </mxGeometry>
        </mxCell>
        <mxCell id="NKPPKOvQrAzpYlbN02P3-15" value="" style="shape=stencil(rVpdbxw3DPw19ypIoj6f0/R/BIhTH+rageO0zb8P1St1q9ndMVD07WxrvKI0HA65d5EP3x4/fX24RP/t7fXl94e/rp/fHi/yyyXG6/Pjw+v1TT9d5ONFPnx5eX347fXl+/Pn289fP42V49MfL3+O//D3DdeLqzJQ0f/49zfd+fbPb369AZ6uzyvAA6C60gkgOwkrILtUCCC5VlaAuJopIMcVEFxPFBAB4F2sBCCu5AXQqmtsS+L8GkPLrgUCiC72FaDPZDEEDLoFV9jFedfWi6vdJQJo3dU1hlpdIEG35jo8IVtUZwDgUhWXPAHoBvwKCHYzx4CCgKJBk5vWa/IrW0t1icUgeEplEv4YEI39EyAuCAEEF+oKCC6SBNJ7bWvQWYMmp1Sby2vQWelNTulOhAkoNIGUCB22lGhO1+TKSo0sLpJjVebEtAKUGoRLypy2Zlzqxt9jgDedmwA9N5KiSrW83nSqzpNTKs0FeAJPIOUmsDWJ6+RYlZsFANEJ21JCIUve1UgAEYOWTi9ukHmlhnBtHWQGQHFCblrJDPSWROmdNYPXexBxQm5auQkZJ7wC5WhnMgHeJXKs2eOxxuYqeYKS2a8pGjVpiWooNzMAsqvk4pI6gTXjYnJCYkjJBQAo+chNKzeBrVHJRy4uBWRr6DSBREtWWwHVDNExoKAIhEJjEC0oKzWC2h9yrBJNtiYgUblX5oCFC0LvISo1VusQomXIMaDuYggmz8eAtNuSp25mEAFMIlWZ0NFq8GwIDSNoRt7j9QWFtTohd6AnHtf9qK8mkqTH0cEEUJFseDzZ5OBYLZBCXO+C5fkUI6vWJ8sh74V6MFUu0EZz3yfLUSRcIaF6vNhonvLsvwOTqeGcomzLp4k+Wd4TLGfFVS18h+WeiFW0rN4sJ3sXvCaNnZy7XmKF5YnVFysm9+WdFQszoPdzz2TvCSt2NFacLBeB5ZUpJl6TUP8gdon35Sy3I1YIfRyTMjNsm+VMmawWbDZDk6/gciE9n0cZi9aLnyVfhOWRbgYYGay+n20GSq2J8snyuh6kp0UtmKBv0oOEGs25b5KPlUw0hN6cyf+xXNUfN8OqZcMGMnBZ8lYtNprK6oHgOEXtBFHJYYBWlgk9y2HJsIKwzk7Nwa78MQOlx9Ggm6UjsKF9EdZ3ptvFvMm92LMUH/5sJX6lCqK9RkQz1Nh6sfA2Zovp385OBC722sAlSPRAW7rRIkJ50Ixggh9wABF446utBNyxspANs7RZwRi40dd2COVq5t1ZwwVJH+bg5qyly2CNuA3PYWeOovU7Z20plItRiVmnnGx0NQFz4nbWWkMuK7mZe9TmHf3gbF/OxgOwJW2Q2GB0DCCgvkc6zCq7UZNmFPPXJe0MdrZJzzFg11pr30lHTRXHZdrZMsdU+i7oTjOuaolZRSPNCfQxIOIAQnOQyWQVqxoTkDggmQpNQKH2vBYUytSo/a91N8HrfEsdM25MIdm82WPtfGfO2QLq0pikkotrU0k3s1o2gGgJp5C52YjubGYO9C6ex1CxAJXI5/4NHUNJVPlat5SfAC3C7C2Vt9czE9Cp6ekB7aZmCEugHs2jTUC0lDoGCIqxEp7GkMzbT0ChPVzPmA+1UWooALik/GX1oatsrVtSOrKhYq84GG3vBL1Tvlb468W2ezXH7ZICoFPovKAoAPp6vcrAgm4oZPd3oMeAnV8aB03yQQENLF/lr0inzk2AigAJOvjdJEYR9A1m30X9Tsr1g3fVbNDZ57u+DYB1DvpnMBvj4PjNwdu/ERV7Mbwj0+bgzggOA4LxCJZzu6I1gmB72uXcOCYGKDh9HRfBkvQ/fMvgPYB+uH+p4cv16en2nYjt3/FLEPqr2xco5ONP);lineShape=1;shadow=0;sketch=0;strokeWidth=1;fillColor=none;" parent="1" vertex="1">
          <mxGeometry x="768.687699291982" y="354.33387395473164" width="130.52537828815275" height="148.88741221733198" as="geometry" />
        </mxCell>
        <mxCell id="NKPPKOvQrAzpYlbN02P3-16" value="" style="shape=stencil(nVhJcttADHyNrqjBYNaz4/zDVZYjVRzLJSvb74OJirIBis0oN5lGc7A2eriRu7fdw+t2E8Pb6Xj4uv25fzztNvJpE+P+Zbc97k/6ayP3G7l7Ohy3X46H7y+P579fH4bl+PXt8GO84dcZx5ViH6gYfp+f9ESN/z75fAY8718sgJsBtE4JAQqlYgGRagSATJIMoBbqBQASBQdgigEAIkk0gKJnohgCpWoAuVEFJzQqNuYcKdZl+0LFRpAyMQg5UbcBiPrTlu2Fgq2y6BNUA0rWn4hLECgEY899OvGqfSS2+WQmAfmpVNhWeCr5Ukew9T9TAa9Xb6s4+wTSqcdL8fagfyRRzs5eUHnjdPwH+wzsG8nMHrw/p1l/koByFabAPl7QPqX4Ec4UBJSXqVl/Esx/7ZRt/wgcr85Ubf8HisCfLtSDsw+gvj1Tr84+g3r1StXGe3Hwun0nZhdvAfSj9s3x1dr7u+3PNg3Qkr1Ye2VI1EC9+YEcHIwyqlvDTiQLZFxdW8lSIifYo10dCB4goOl6mAFwFZpuAfFBM2iLVv2a0bQySGtTVrYn1GkxLB0QPE9kELLaN7c3YE5VCjg1wVTQHDCxLdpl0S7NZZzNJWqK7EsWJgeX5jKy8x92aZuUzGVPUsdzU7rLP+JFDrPFWuEiGAfYhugT0y8F4BarLmIkzjRDwU2+4BRlT106ZhG5dCug6XJ1Y1amtl3aHsFRRYNyoqpYqh7QQN1KnfFjv3HBKqCBOsw3+ADcJBEGAMz+XIMMAIhhLnJWThi9XGcANA7dr+UBQLo9Tqr4Mp+MdW/y86ObsKOrxGxPSYbKd7SarXRSjkQuda9dtJQJdOsQ745kMhygQVo2S9qOGbik6syxRmmQV4f8cDSWYLfqdSPbExq+ICig2ZleuZYqwFH3ysV3uORuyoUCSmvxN+WxXlDhdBlbkaT0HNEAJb9O3oXidYAKluYBSFVpa2SvSPDKnV8dVxGqq+QWpwaXxlvC1plzumolsVwnHvrH0inAqc+V5vif7y5rAP3x/pnnaf/8fP5K9PH//rOQPjp/UpL7Pw==);lineShape=1;shadow=0;sketch=0;strokeWidth=1;fillColor=none;" parent="1" vertex="1">
          <mxGeometry x="766.6234475548658" y="347.62589120906614" width="47.156706326518815" height="42.58327012153495" as="geometry" />
        </mxCell>
        <mxCell id="NKPPKOvQrAzpYlbN02P3-18" value="" style="shape=cube;whiteSpace=wrap;html=1;boundedLbl=1;backgroundOutline=1;darkOpacity=0.05;darkOpacity2=0.1;fillColor=#fa6800;strokeColor=#C73500;fontColor=#000000;" parent="1" vertex="1">
          <mxGeometry x="645" y="310" width="60" height="60" as="geometry" />
        </mxCell>
        <mxCell id="1pmcgTf0t8dGMsoe2IuF-1" value="End the day" style="strokeWidth=1;shadow=0;dashed=0;align=center;html=1;shape=mxgraph.mockup.buttons.button;strokeColor=#666666;fontColor=#ffffff;mainText=;buttonStyle=round;fontSize=17;fontStyle=1;fillColor=#008cff;whiteSpace=wrap;" parent="1" vertex="1">
          <mxGeometry x="465" y="40" width="150" height="50" as="geometry" />
        </mxCell>
        <object label="" Settings="" id="1pmcgTf0t8dGMsoe2IuF-2">
          <mxCell style="icon;html=1;image=img/clipart/Gear_128x128.png;fontSize=13;" parent="1" vertex="1">
            <mxGeometry x="40" y="35" width="60" height="60" as="geometry" />
          </mxCell>
        </object>
        <mxCell id="aBOBBW7Et1cYONeJTDYV-1" value="Inventory" style="strokeWidth=1;shadow=0;dashed=0;align=center;html=1;shape=mxgraph.mockup.buttons.button;strokeColor=#666666;fontColor=#ffffff;mainText=;buttonStyle=round;fontSize=17;fontStyle=1;fillColor=#008cff;whiteSpace=wrap;" vertex="1" parent="1">
          <mxGeometry x="960" y="50" width="90" height="30" as="geometry" />
        </mxCell>
      </root>
    </mxGraphModel>
  </diagram>
</mxfile>
